<?xml version='1.0' encoding='utf-8'?>
<svg xmlns="http://www.w3.org/2000/svg" version="1.1" viewBox="0 0 500 500"> <g transform="translate(0 -552.36)" clip-rule="nonzero" fill-rule="evenodd" shape-rendering="auto"> <rect transform="matrix(.70711 -.70711 .70711 .70711 0 0)" x="-570.82" y="563.89" width="360.48" height="360.48" rx="15.351" color="#000000" color-rendering="auto" enable-background="accumulate" fill="#fdb719" image-rendering="auto" solid-color="#000000" stroke="#060606" stroke-linecap="butt" stroke-linejoin="miter" stroke-miterlimit="4" stroke-width="2.9151" style="isolation:auto;mix-blend-mode:normal"/> <rect transform="matrix(.70711 -.70711 .70711 .70711 0 0)" x="-557.36" y="577.35" width="333.57" height="333.57" rx="14.205" color="#000000" color-rendering="auto" enable-background="accumulate" fill="#060606" image-rendering="auto" solid-color="#000000" style="isolation:auto;mix-blend-mode:normal"/> <rect transform="matrix(.70711 -.70711 .70711 .70711 0 0)" x="-550.11" y="584.6" width="319.07" height="319.07" rx="13.587" color="#000000" color-rendering="auto" enable-background="accumulate" fill="#fdb719" image-rendering="auto" solid-color="#000000" style="isolation:auto;mix-blend-mode:normal"/> </g> <g fill="#060606" stroke-linecap="butt" stroke-linejoin="miter" stroke-width="1px"> <path d="m164.21 241.61q0 9.8845-2.3323 17.048-2.2768 7.1635-6.3305 11.773-3.9982 4.609-9.4402 6.8303-5.3865 2.2212-11.55 2.2212-14.327 0-21.546-9.4958-7.219-9.5513-7.219-27.71 0-9.8845 2.2768-17.048 2.3323-7.1635 6.3305-11.773 4.0537-4.609 9.4402-6.8303 5.442-2.2212 11.606-2.2212 14.327 0 21.546 9.4958t7.219 27.71zm-14.438 0.66637q0-12.883-3.4429-19.214-3.4429-6.3305-11.328-6.3305-3.9427 0-6.7192 1.6659-2.7765 1.6104-4.609 4.7756-1.777 3.1652-2.61 7.8298-0.83296 4.609-0.83296 10.606 0 12.883 3.4429 19.214 3.4984 6.3305 11.328 6.3305 3.9427 0 6.7192-1.6104 2.8321-1.6659 4.609-4.8312 1.777-3.1652 2.61-7.7743 0.83296-4.6646 0.83296-10.662z" style=""/> <path d="m224.9 249.56q0 6.6637-1.888 12.217-1.888 5.4975-5.442 9.4402t-8.7183 6.1084q-5.1644 2.1657-11.773 2.1657-6.275 0-11.217-1.8325-4.9422-1.8325-8.3851-5.442-3.4429-3.665-5.2754-9.107-1.8325-5.4975-1.8325-12.772 0-6.7192 1.888-12.217 1.9436-5.4975 5.4975-9.3847 3.6095-3.8872 8.7739-5.9973 5.1644-2.1657 11.661-2.1657 6.3305 0 11.273 1.888 4.9422 1.8325 8.3851 5.4975t5.2199 9.107q1.8325 5.3865 1.8325 12.494zm-14.105 0.33319q0-8.7739-3.3318-13.161-3.2763-4.4425-9.7179-4.4425-3.554 0-6.0528 1.3883-2.4989 1.3883-4.1093 3.8316-1.6104 2.3878-2.3878 5.6086-0.7219 3.2208-0.7219 6.8858 0 8.8294 3.554 13.327 3.554 4.4425 9.7179 4.4425 3.3874 0 5.8863-1.3327 2.4989-1.3883 4.0537-3.7761 1.5549-2.4434 2.3323-5.7197t0.77743-7.0524z" style=""/> <path d="m287.48 249q0 7.7743-2.2212 13.438-2.1657 5.6641-6.1084 9.4402-3.8872 3.7206-9.2181 5.5531-5.331 1.777-11.606 1.777-2.1102 0-4.2203-0.27766-2.1102-0.27765-3.8316-0.72189v22.046h-13.55v-78.465h11.717l0.33318 8.3296q1.7214-2.1657 3.554-3.9427 1.888-1.777 4.0537-2.9987 2.1657-1.2772 4.6646-1.9436t5.6086-0.66637q4.9978 0 8.8849 1.9991t6.4971 5.7197q2.6655 3.665 4.0538 8.9404 1.3883 5.2199 1.3883 11.773zm-14.216 0.55531q0-4.6646-0.66637-7.9409t-1.9436-5.3865q-1.2217-2.1102-3.0542-3.0542-1.777-0.99955-4.1093-0.99955-3.4429 0-6.6082 2.7765-3.1097 2.7765-6.6082 7.5522v24.656q1.6104 0.61084 3.9427 0.99955 2.3878 0.38872 4.8312 0.38872 3.2208 0 5.8307-1.3327 2.6655-1.3327 4.498-3.7761 1.888-2.4434 2.8876-5.9418 0.99955-3.554 0.99955-7.9409z" style=""/> <path d="m345.9 261.61q0 4.8312-2.1657 8.2741-2.1102 3.3874-5.6641 5.5531-3.4984 2.1102-7.9964 3.0542-4.4425 0.99955-9.107 0.99955-6.2194 0-11.217-0.61084-4.9978-0.5553-9.4402-1.6659v-12.217q5.2199 2.1657 10.384 3.1652 5.2199 0.94403 9.8289 0.94403 5.331 0 7.9409-1.6659 2.6655-1.7214 2.6655-4.4424 0-1.2772-0.5553-2.3323-0.55531-1.0551-2.1102-1.9991-1.4993-0.99955-4.2759-1.9991-2.7765-1.0551-7.2745-2.3323-4.1648-1.1661-7.3301-2.6099-3.1097-1.4993-5.1644-3.4984-2.0546-1.9991-3.1097-4.609-0.99955-2.6655-0.99955-6.2194 0-3.4429 1.5549-6.4971t4.609-5.331q3.1097-2.3323 7.7188-3.665t10.773-1.3327q5.331 0 9.4402 0.55531 4.1093 0.55531 7.2745 1.2217v11.051q-4.8312-1.5549-9.107-2.1657-4.2203-0.66637-8.3851-0.66637t-6.7192 1.4993q-2.4989 1.4993-2.4989 4.1648 0 1.2772 0.49978 2.2768t1.9436 1.9436q1.4993 0.94403 4.1093 1.9991 2.6655 0.99955 6.9969 2.2212 4.8867 1.3883 8.2186 2.9987 3.3318 1.5549 5.331 3.554 2.0546 1.9991 2.9431 4.5535t0.8885 5.8307z" style=""/> <path d="m391.38 255.66h-11.606l-2.0546-55.919h15.715l-2.0546 55.919zm-5.8307 6.4971q1.777 0 3.3318 0.66636 1.6104 0.66637 2.7765 1.8325 1.1662 1.1661 1.8325 2.7765 0.7219 1.5549 0.7219 3.3874t-0.7219 3.4429q-0.66637 1.5549-1.8325 2.721-1.1661 1.1661-2.7765 1.8325-1.5549 0.66637-3.3318 0.66637-1.777 0-3.3874-0.66637-1.5549-0.66637-2.721-1.8325-1.1661-1.1662-1.8325-2.721-0.66637-1.6104-0.66637-3.4429t0.66637-3.3874q0.66637-1.6104 1.8325-2.7765 1.1662-1.1662 2.721-1.8325 1.6104-0.66636 3.3874-0.66636z" style=""/> </g> </svg>