<svg width="25" height="24" viewBox="0 0 25 24" fill="none" xmlns="http://www.w3.org/2000/svg">
<path d="M17.3536 18.1975L16.6252 17.4691C16.5304 17.3728 16.4171 17.3247 16.2854 17.3247C16.1536 17.3247 16.04 17.3728 15.9445 17.4691C15.849 17.5653 15.8012 17.6778 15.8012 17.8066C15.8012 17.9362 15.849 18.0483 15.9445 18.1431L16.8994 19.098C17.0371 19.2365 17.1922 19.3057 17.3647 19.3057C17.5364 19.3057 17.6915 19.2365 17.8299 19.098L20.1596 16.8028C20.2551 16.7066 20.3065 16.5967 20.3139 16.473C20.3213 16.3479 20.2699 16.2306 20.1596 16.121C20.0641 16.0255 19.9471 15.9778 19.8087 15.9778C19.6703 15.9778 19.5529 16.0259 19.4567 16.1221L17.3536 18.1975ZM6.13737 7.25222H16.644C16.8017 7.25222 16.9335 7.19929 17.0393 7.09343C17.1452 6.98757 17.1985 6.85543 17.1992 6.69702C17.1992 6.5386 17.0071 6.40646 16.6229 6.3006C16.2395 6.19474 16.0115 6.14181 15.9389 6.14181H6.13737C5.9797 6.14181 5.84793 6.19474 5.74207 6.3006C5.63547 6.40646 5.58217 6.5386 5.58217 6.69702C5.58217 6.85469 5.63547 6.98683 5.74207 7.09343C5.84867 7.20003 5.98044 7.25296 6.13737 7.25222ZM18.052 22.115C16.815 22.115 15.7653 21.6842 14.9029 20.8225C14.0405 19.9608 13.6097 18.9111 13.6104 17.6734C13.6104 16.4371 14.0412 15.3878 14.9029 14.5254C15.7646 13.663 16.8143 13.2318 18.052 13.2318C19.289 13.2318 20.3387 13.663 21.2011 14.5254C22.0636 15.3878 22.4944 16.4371 22.4937 17.6734C22.4937 18.9111 22.0628 19.9608 21.2011 20.8225C20.338 21.6842 19.2883 22.115 18.052 22.115ZM2.50635 20.5671V3.7933C2.50635 3.29732 2.68105 2.87426 3.03046 2.52411C3.37987 2.1747 3.80293 2 4.29965 2H18.4795C18.9755 2 19.3986 2.1747 19.7487 2.52411C20.0981 2.87352 20.2728 3.29658 20.2728 3.7933V10.3947C20.0922 10.328 19.9127 10.271 19.7343 10.2237C19.5566 10.1763 19.366 10.1393 19.1624 10.1126V3.79442C19.1624 3.62341 19.0914 3.46648 18.9492 3.3236C18.8064 3.18147 18.6498 3.11041 18.4795 3.11041H4.29965C4.12939 3.11041 3.97282 3.18147 3.82995 3.3236C3.68782 3.46648 3.61675 3.62304 3.61675 3.7933V18.7116H10.6612C10.7115 19.0151 10.7766 19.312 10.8566 19.6021C10.9373 19.8923 11.0494 20.1692 11.1931 20.4327C11.1716 20.4372 11.1494 20.4338 11.1264 20.4227C11.1027 20.4124 11.0824 20.3987 11.0654 20.3817L10.1548 19.7487C10.0727 19.6954 9.98604 19.6688 9.89499 19.6688C9.80393 19.6688 9.71695 19.6958 9.63404 19.7498L8.66022 20.4238C8.57805 20.4779 8.49143 20.5049 8.40038 20.5049C8.30933 20.5049 8.22235 20.4779 8.13944 20.4238L7.16561 19.7498C7.08344 19.6958 6.99683 19.6688 6.90578 19.6688C6.81398 19.6688 6.727 19.6958 6.64483 19.7498L5.671 20.4238C5.58809 20.4779 5.50111 20.5049 5.41006 20.5049C5.31901 20.5049 5.23239 20.4779 5.15022 20.4238L4.1764 19.7498C4.09349 19.6958 4.00651 19.6688 3.91545 19.6688C3.8244 19.6688 3.73779 19.6958 3.65562 19.7498L2.78839 20.4238C2.74546 20.4527 2.65144 20.4997 2.50635 20.5671ZM6.13737 15.6236H10.8111C10.8525 15.42 10.9036 15.2294 10.9643 15.0517C11.0258 14.874 11.0972 14.6945 11.1786 14.5132H6.13737C5.97896 14.5132 5.84682 14.5665 5.74096 14.6731C5.6351 14.7797 5.5818 14.9114 5.58106 15.0684C5.58106 15.2268 5.63436 15.3589 5.74096 15.4648C5.84682 15.5706 5.9797 15.6236 6.13737 15.6236ZM6.13626 11.4384H13.7003C14.0616 11.152 14.4499 10.9132 14.8652 10.7222C15.2797 10.5305 15.7228 10.3991 16.1943 10.328H6.13626C5.97859 10.328 5.84682 10.381 5.74096 10.4868C5.63436 10.5934 5.58106 10.7256 5.58106 10.8832C5.58106 11.0409 5.63436 11.1731 5.74096 11.2797C5.84682 11.3855 5.97859 11.4384 6.13626 11.4384Z" fill="#6B6B6B"/>
<path d="M3.61675 18.7116V3.7933C3.61675 3.62304 3.68782 3.46648 3.82995 3.3236C3.97282 3.18147 4.12939 3.11041 4.29965 3.11041H18.4795C18.6498 3.11041 18.8064 3.18147 18.9492 3.3236C19.0914 3.46648 19.1624 3.62341 19.1624 3.79442V10.1126C19.366 10.1393 19.5566 10.1763 19.7343 10.2237C19.9127 10.271 20.0922 10.328 20.2728 10.3947V3.7933C20.2728 3.29658 20.0981 2.87352 19.7487 2.52411C19.3986 2.1747 18.9755 2 18.4795 2H4.29965C3.80293 2 3.37987 2.1747 3.03046 2.52411C2.68105 2.87426 2.50635 3.29732 2.50635 3.7933V20.5671C2.65144 20.4997 2.74546 20.4527 2.78839 20.4239L3.65562 19.7498C3.73779 19.6958 3.8244 19.6688 3.91545 19.6688C4.00651 19.6688 4.09349 19.6958 4.1764 19.7498L5.15022 20.4239C5.23239 20.4779 5.319 20.5049 5.41006 20.5049C5.50111 20.5049 5.58809 20.4779 5.671 20.4239L6.64483 19.7498C6.727 19.6958 6.81398 19.6688 6.90577 19.6688C6.99683 19.6688 7.08344 19.6958 7.16561 19.7498L8.13944 20.4239C8.22235 20.4779 8.30933 20.5049 8.40038 20.5049C8.49143 20.5049 8.57805 20.4779 8.66022 20.4239L9.63404 19.7498C9.71695 19.6958 9.80393 19.6688 9.89499 19.6688C9.98604 19.6688 10.0727 19.6954 10.1548 19.7487L11.0654 20.3817C11.0824 20.3987 11.1027 20.4124 11.1264 20.4227C11.1494 20.4338 11.1716 20.4372 11.1931 20.4327C11.0494 20.1692 10.9373 19.8923 10.8566 19.6022C10.7766 19.312 10.7115 19.0151 10.6612 18.7116H3.61675ZM3.61675 18.7116V3.11041M17.3536 18.1975L16.6252 17.4691C16.5304 17.3728 16.4171 17.3247 16.2854 17.3247C16.1536 17.3247 16.04 17.3728 15.9445 17.4691C15.849 17.5653 15.8012 17.6778 15.8012 17.8066C15.8012 17.9362 15.849 18.0483 15.9445 18.1431L16.8994 19.098C17.0371 19.2365 17.1922 19.3057 17.3647 19.3057C17.5364 19.3057 17.6915 19.2365 17.8299 19.098L20.1596 16.8028C20.2551 16.7066 20.3065 16.5967 20.3139 16.473C20.3213 16.3479 20.2699 16.2306 20.1596 16.121C20.0641 16.0255 19.9471 15.9778 19.8087 15.9778C19.6703 15.9778 19.5529 16.0259 19.4567 16.1221L17.3536 18.1975ZM6.13737 7.25222H16.644C16.8017 7.25222 16.9335 7.19929 17.0393 7.09343C17.1452 6.98757 17.1985 6.85543 17.1992 6.69702C17.1992 6.5386 17.0071 6.40646 16.6229 6.3006C16.2395 6.19474 16.0115 6.14181 15.9389 6.14181H6.13737C5.9797 6.14181 5.84793 6.19474 5.74207 6.3006C5.63547 6.40646 5.58217 6.5386 5.58217 6.69702C5.58217 6.85469 5.63547 6.98683 5.74207 7.09343C5.84867 7.20003 5.98044 7.25296 6.13737 7.25222ZM18.052 22.115C16.815 22.115 15.7653 21.6842 14.9029 20.8225C14.0405 19.9608 13.6097 18.9111 13.6104 17.6734C13.6104 16.4371 14.0412 15.3878 14.9029 14.5254C15.7646 13.663 16.8143 13.2318 18.052 13.2318C19.289 13.2318 20.3387 13.663 21.2011 14.5254C22.0636 15.3878 22.4944 16.4371 22.4936 17.6734C22.4936 18.9111 22.0628 19.9608 21.2011 20.8225C20.338 21.6842 19.2883 22.115 18.052 22.115ZM6.13737 15.6236H10.8111C10.8525 15.42 10.9036 15.2294 10.9643 15.0517C11.0257 14.874 11.0972 14.6945 11.1786 14.5132H6.13737C5.97896 14.5132 5.84682 14.5665 5.74096 14.6731C5.6351 14.7797 5.5818 14.9114 5.58106 15.0684C5.58106 15.2268 5.63436 15.3589 5.74096 15.4648C5.84682 15.5706 5.9797 15.6236 6.13737 15.6236ZM6.13626 11.4384H13.7003C14.0616 11.152 14.4499 10.9132 14.8652 10.7222C15.2797 10.5305 15.7228 10.3991 16.1943 10.328H6.13626C5.97859 10.328 5.84682 10.381 5.74096 10.4868C5.63436 10.5934 5.58106 10.7256 5.58106 10.8832C5.58106 11.0409 5.63436 11.1731 5.74096 11.2797C5.84682 11.3855 5.97859 11.4384 6.13626 11.4384Z" stroke="#6B6B6B" stroke-width="0.3"/>
</svg>
