<svg width="25" height="24" viewBox="0 0 25 24" fill="none" xmlns="http://www.w3.org/2000/svg">
<path d="M5.98126 21.9997C4.67241 21.9997 3.61133 20.9109 3.61133 19.5665V9.78675C3.61133 9.04788 3.9391 8.3479 4.50019 7.8868L11.0189 2.53362C11.4354 2.18873 11.9592 2 12.5 2C13.0407 2 13.5645 2.18873 13.981 2.53362L20.4986 7.8868C21.0608 8.3479 21.3886 9.04788 21.3886 9.78675V19.5665C21.3886 20.9109 20.3275 21.9997 19.0187 21.9997H5.98126Z" stroke="#6B6B6B" stroke-width="1.66662" stroke-linecap="round" stroke-linejoin="round"/>
<path d="M9.72217 21.9997V15.8888C9.72217 15.2994 9.95629 14.7342 10.373 14.3175C10.7898 13.9007 11.355 13.6666 11.9443 13.6666H13.0554C13.6448 13.6666 14.21 13.9007 14.6267 14.3175C15.0434 14.7342 15.2776 15.2994 15.2776 15.8888V21.9997" stroke="#6B6B6B" stroke-width="1.66662" stroke-linecap="round" stroke-linejoin="round"/>
</svg>
